PathFileType	4	(X/Y/Z)	Patient4_TMGait_0pt4_03_right_40.trc.trc
DataRate	CameraRate	NumFrames	NumMarkers	Units	OrigDataRate	OrigDataStartFrame	OrigNumFrames
77.777777777778	77.777777777778	4	33	mm	77.777777777778	106	       141
Frame#	Time	Sacral			L.Shoulder			Chest			R.Shoulder			Neck			R.ASIS			L.ASIS			R.Thigh.Superior			R.Thigh.Lateral			R.Thigh.Inferior			R.Patella			L.Thigh.Superior			L.Thigh.Lateral			L.Thigh.Inferior			L.Patella			L.Shank.Superior			L.Shank.Lateral			L.Shank.Inferior			R.Shank.Superior			R.Shank.Lateral			R.Shank.Inferior			R.Heel			R.Midfoot.Superior			R.Midfoot.Lateral			R.Toe			L.Heel			L.Midfoot.Lateral			L.Midfoot.Superior			L.Toe			L.Elbow			L.Wrist			R.Elbow			R.Wrist			
		X1	Y1	Z1	X2	Y2	Z2	X3	Y3	Z3	X4	Y4	Z4	X5	Y5	Z5	X6	Y6	Z6	X7	Y7	Z7	X8	Y8	Z8	X9	Y9	Z9	X10	Y10	Z10	X11	Y11	Z11	X12	Y12	Z12	X13	Y13	Z13	X14	Y14	Z14	X15	Y15	Z15	X16	Y16	Z16	X17	Y17	Z17	X18	Y18	Z18	X19	Y19	Z19	X20	Y20	Z20	X21	Y21	Z21	X22	Y22	Z22	X23	Y23	Z23	X24	Y24	Z24	X25	Y25	Z25	X26	Y26	Z26	X27	Y27	Z27	X28	Y28	Z28	X29	Y29	Z29	X30	Y30	Z30	X31	Y31	Z31	X32	Y32	Z32	X33	Y33	Z33	

106	53.740000000000	914.606546552966	1014.692938499412	427.845612717099	1126.202280301533	1429.717090672863	234.172892421237	1213.756161530106	1363.805938408745	404.685131794740	1122.707624292568	1445.685980206648	570.574863371656	1104.229552838931	1499.579165120256	388.503257912340	1138.432204039061	955.197866180920	555.531743483886	1135.029069303502	961.370694129143	280.273841335166	1221.765824270808	786.707874546036	532.785606294808	1184.668212436400	669.319921524153	616.542353532073	1272.377495689608	626.828974154012	538.793680612974	1299.755901551808	526.448912169042	568.507557939979	1171.744083047441	747.673414691119	313.468053337189	1078.323808229617	635.871560059288	252.488032749373	1157.424991118967	555.512258774273	317.375333462988	1153.210364724018	487.079988846964	328.051826969497	1126.048239513638	416.561303769563	320.609755541303	1034.512470749537	303.706361633631	270.517772045500	1080.352525200159	192.100224608504	344.143560503565	1245.183132669762	441.113230173192	582.830598245078	1144.872281101609	371.096001973200	652.579868046826	1163.467541597928	259.507869843638	609.444190401372	992.757551263189	137.019005405077	596.735039894598	1172.553857558358	136.130976876006	630.327114690300	1070.543903949872	101.187389312822	668.428039899982	1269.784888835555	49.701097928920	653.650843954560	949.387548699491	39.241008582094	388.257671087028	1022.040110622349	35.807884896729	306.393661911407	1106.085793886694	96.089410538309	333.258718558175	1233.961093431651	43.740799270540	301.569046914715	1152.814906763865	1080.007496427712	111.440840136121	1344.646785341313	902.104096279121	123.550165419992	1079.919514764814	1100.551657969232	698.286302673691	1156.756090461224	849.621485539216	710.882215781213	
107	53.752857142857	914.347916498455	1014.840615748746	426.566238862295	1129.264148207062	1429.520755218063	234.316703283314	1214.966500009418	1363.052232851838	405.576279552117	1122.678409033177	1445.062776073014	570.742979710095	1105.969923933275	1499.306116362319	388.683429600618	1137.391619201994	955.172612366509	556.013480821034	1135.668701868823	960.919233120142	280.469073475807	1220.167931098841	786.628327497880	533.279044934184	1183.198812935563	669.600044700276	617.089640540756	1270.414190914454	626.747310964477	539.005687030219	1299.174189741562	528.582546238253	568.529651080719	1170.692908733974	746.887462988075	314.524224274587	1077.202355239394	635.504393756719	252.471203921306	1155.297291263790	554.795778499017	317.991742171073	1150.546346499225	486.328377625609	328.594759198167	1123.069251977032	415.886384993484	321.001532380764	1031.139867606404	303.499992755497	270.637021266306	1075.945109504828	191.714261993681	344.449522901912	1248.760549640218	442.293713384324	583.450638995632	1153.644893802813	367.080327988150	654.652704442190	1177.902067129428	256.664378104152	611.173173465152	1014.425597009218	124.788274677375	600.303235850711	1194.226763445700	133.731910712395	632.062206573706	1094.727165673464	93.522842709843	671.330157499629	1296.211977291361	53.022702485582	654.852091288529	944.216025514778	39.213653075144	388.236036741192	1016.868714965498	35.796316509323	306.392894503734	1100.943461532752	96.063089872695	333.368615470804	1228.808364629551	43.663074004916	301.598933982341	1156.692880059244	1080.497110391967	110.534527017633	1354.050573649667	908.992096762707	124.245286562731	1070.762873243928	1101.609572236562	698.781225760771	1134.498915182063	847.382631858503	715.689545129569	
108	53.765714285714	914.210945241800	1014.948956108135	425.419733997012	1132.288606520263	1429.214131297597	234.662007262410	1216.258903603033	1362.214251339558	406.597581143328	1122.842403354204	1444.407782907164	571.061644791722	1107.767654895691	1498.949802773517	389.042688976838	1136.418835491609	954.897198029067	556.535238216493	1136.376453618976	960.445187741697	280.760891734598	1218.225032473128	785.963431946521	533.992167379301	1180.991798949449	669.437242793699	617.844527271874	1267.790012445533	626.053754160744	539.533442536169	1297.702371256445	530.225599690543	568.684115422082	1169.757192647045	746.068224350217	315.523727221675	1076.159259332035	635.101921869919	252.503289279194	1153.264658649605	554.049087621550	318.616525523306	1147.994040899591	485.546417461976	329.154123350699	1120.173271078455	415.168323276396	321.416374907201	1027.817502780991	303.279907990726	270.771155136836	1071.558971741328	191.301907493009	344.750831084267	1251.681835434949	443.310203145478	584.132736375916	1162.215103320379	363.035052038945	656.781790799030	1192.196651686942	254.189620598151	612.817029127321	1036.691390293649	113.128924133620	603.712670825329	1215.981224770047	132.000765755666	633.567211606235	1119.325859261083	86.534371004538	673.965939960438	1322.481461032065	57.286638772379	655.643882632767	939.051205286560	39.185960738432	388.212150636006	1011.697714354738	35.784649371508	306.388914628927	1095.799365910524	96.033385435248	333.480903217898	1223.654039051466	43.582070279411	301.633515263117	1160.250525323711	1080.837209663461	109.845194953099	1362.826417386928	915.867746581413	125.264403264635	1061.412585800072	1102.964398943602	699.285001359554	1112.989202838638	846.478606938750	719.953920427494	
109	53.778571428571	914.205045427356	1015.036656122886	424.407249554548	1135.243635586918	1428.816239796372	235.203488515851	1217.623398458244	1361.319484636830	407.739092282794	1123.197009704964	1443.746305744890	571.525800832780	1109.604930798939	1498.529002761467	389.571686357239	1135.547742494563	954.402890258689	557.113827414679	1137.154349039884	959.955520723178	281.152092695124	1215.998392841520	784.756645159285	534.920101455722	1178.137728209549	668.860220548270	618.816752698857	1264.609919824913	624.811896711776	540.376158673383	1295.426095302354	531.387062808599	568.973962737881	1168.947394687709	745.214148048177	316.459850492784	1075.182112785976	634.675560078641	252.592331287163	1151.305015069218	553.272160135835	319.256556460874	1145.527337860449	484.740302284713	329.735274904437	1117.338554954485	414.417790990522	321.857888922027	1024.529165617005	303.053990092531	270.921368054493	1067.184847490777	190.870825543746	345.047192688978	1253.953191550030	444.187610675440	584.870593792402	1170.436590293436	359.077166799659	658.877625483714	1206.115568983701	252.173483906907	614.314052059855	1059.159004006757	102.319148949206	606.790872482748	1237.449616812514	130.985211146826	634.773246031727	1143.889098267184	80.362541051512	676.193912276350	1348.129319653780	62.392587292760	655.965570950930	933.890562286073	39.162852273683	388.185211992646	1006.527266258254	35.774323261211	306.381319673124	1090.655712693564	95.999437881009	333.592534847300	1218.499377572824	43.495774305920	301.671143972917	1163.528943641272	1081.038691003025	109.389977718740	1370.956391295938	922.651665914948	126.612151771329	1051.956300618956	1104.648170883827	699.788440064620	1092.350707537577	846.721607985419	723.666152253115	
